<?xml version="1.0" encoding="UTF-8"?>
<svg id="Layer_1" xmlns="http://www.w3.org/2000/svg" version="1.1" viewBox="0 0 841.89 595.28">
  <!-- Generator: Adobe Illustrator 30.0.0, SVG Export Plug-In . SVG Version: 2.1.1 Build 123)  -->
  <defs>
    <style>
      .st0 {
        font-family: KannadaMN, 'Kannada MN';
        font-size: 26px;
      }

      .st0, .st1, .st2, .st3 {
        isolation: isolate;
      }

      .st2 {
        font-family: Didot, Didot;
        font-size: 40px;
      }

      .st4 {
        fill: #faf7f0;
      }

      .st5, .st6 {
        fill: none;
        stroke: #000;
        stroke-miterlimit: 10;
      }

      .st6 {
        stroke-width: 2px;
      }

      .st7 {
        fill: #faf7f5;
      }

      .st3 {
        font-family: STSongti-SC-Regular, 'Songti SC';
        font-size: 17px;
      }
    </style>
  </defs>
  <circle class="st7" cx="436.56" cy="282.47" r="220"/>
  <g>
    <g>
      <path class="st6" d="M425.1,220.93c3.2-2.57,6.66-4.81,10.32-6.66,1.06-.54,2.16-1.05,3.34-1.21s2.47.1,3.32.92"/>
      <path class="st6" d="M431.73,228.44c1.04-.21,1.88.14,2.67-.37s1.44-1.21,2.21-1.74c2.3-1.57,5.31-1.37,8.06-1.8,4.16-.65,7.9-2.85,11.53-5"/>
      <path class="st6" d="M441.53,219.81c-.07-1.69-.14-3.41.29-5.05s1.45-3.21,3-3.88c1.07-.47,2.28-.47,3.44-.33,3.76.44,7.33,2.35,9.79,5.22"/>
      <path class="st6" d="M442.04,214.02c.85-.9,2.56-.8,3.77-.55s2.36.77,3.58.93c1.09.14,2.24-.02,3.26.4.96.39,1.67,1.26,2.09,2.21s.59,1.99.76,3.02"/>
      <path class="st6" d="M441.83,216.63l7.36.72c.46.04.94.1,1.32.37.65.46.75,1.37.87,2.16s.46,1.71,1.25,1.87"/>
      <path class="st6" d="M423.33,218.47c3.99-4.3,8.67-5.66,14.52-5.24"/>
      <path class="st6" d="M460.73,212.99c0,.93-1.9,1.16-2.77,2.5s-1.23,2.94-1.51,4.51c-1.19,6.58-1.46,13.33-.78,19.99"/>
      <path class="st6" d="M455.31,240.35c-4.51-7.44-13.68-8.99-22.05-11.38-3.63-1.03-4.96-4.09-6.88-5.96-1.33-1.3-2.71-2.68-3.23-4.47-.58-.64-1.49-1.51-2.39-2.37-.35-.34-.74-.69-1.22-.78-1.03-.19-1.84.89-2.18,1.89s-1.67,2.29-1.37,3.05c1.42,3.58,9.5,4.51,13.56,7.71,3.94,3.11,8.17,6.69,8.95,11.65.12.79.17,1.65.67,2.29s.96.62,2.28.4"/>
      <path class="st6" d="M414.69,219.23c.94-3.62,3.8-6.24,7.07-8.05s6.96-2.68,10.6-3.54c3.78-.89,7.64-1.79,11.52-1.47,6.18.51,11.65,4.02,16.83,7.43"/>
      <path class="st6" d="M453.86,209.08c1.65-.8,3.5-1.16,5.33-1.04.45.03.95.11,1.24.46.27.32.28.78.28,1.2,0,1.11,0,2.22.01,3.32"/>
      <path class="st6" d="M460.11,209.07c2.27-.72,4.82.02,6.75,1.42s3.35,3.39,4.62,5.41c4.89,7.72,8.3,16.37,9.97,25.35"/>
      <path class="st6" d="M455.15,239.87c2.12-.35,3.93-1.73,5.41-3.29s2.73-3.34,4.29-4.81c2.04-1.93,4.7-3.32,7.51-3.37s5.71,1.42,6.91,3.96"/>
      <path class="st6" d="M425.18,209.69c-2.62-.38-5.28,0-7.39,1.6s-3.51,3.45-5.14,5.54"/>
      <path class="st6" d="M410.42,258.64c2.21-5.56,7.19-9.65,12.67-12.04s11.52-3.49,17.31-4.14c4.96-.56,9.68-.92,14.11-2.36,5.67-.48,11.46-.95,16.98.42,3.87.96,8.71,2.41,12.69,2.26"/>
      <path class="st6" d="M466.28,239.8c5.71-3.31,13.02-.42,18.18,3.55"/>
      <path class="st6" d="M416.01,220.47c-2.21-1.55-3.23-4.19-5.57-5.54s-5.57-1.54-7.56.29c-1.56,1.44-1.99,3.7-2.33,5.79-.87,5.28-1.69,10.93.5,15.81,1.99,4.44,6.38,8.08,6.28,12.94-.03,1.27-.37,2.5-.54,3.76s-.13,2.61.53,3.69,2.12,1.75,3.25,1.19"/>
      <path class="st6" d="M406.49,256.94c-7.95-2.85-17.36-3.67-25.35-.96-.8.27-1.63.6-2.14,1.28s-.48,1.81.25,2.22c.29.17.65.2.99.22,2.72.19,5.43.38,8.15.57,2.09.15,4.51.17,5.89-1.41.6-.69,1.07-1.71,1.98-1.77.59-.04,1.1.36,1.66.56,2.8,1.05,6.23-2.08,8.57-.71h0Z"/>
      <path class="st6" d="M405.89,256.65c4.96,3.16,11.12,3.91,17.04,3.66s12.13-.82,17.52,1.63c2.89,1.31,5.34,3.41,8.01,5.13,2.83,1.82,5.93,3.23,9.17,4.14,2.42.68,4.92,1.09,7.24,2.06s4.5,2.62,5.37,4.98"/>
      <path class="st6" d="M442.94,263.14c9.8.8,19.23,5.37,25.81,12.68"/>
      <path class="st6" d="M467.1,274.66c11.87-10.56,23.75-21.13,35.62-31.69,3.62-3.22,9.13-7.23,9.09-10.84"/>
      <path class="st6" d="M484.33,243.2c2.84,3.2,4.46,8.03,4.24,12.31"/>
      <path class="st6" d="M511.75,232.64c0-2.81,5.19-5.38,7.45-8.43.72-.98,1.43-2.22.95-3.34-.37-.87-1.39-1.33-2.34-1.31s-1.84.42-2.69.85c-4.27,2.18-9.62,3.89-10.84,8.26"/>
      <path class="st6" d="M401.79,216.62c-.62-3.59,0-7.45,2.01-10.18l8.28-6.98c.96-.81,1.91-1.61,2.9-2.39,2.45-1.91,5.35-3.68,8.44-3.34.76.08,1.54.3,2.29.1.78-.2,1.42-.84,2.22-.94,1.54-.2,2.56,1.51,3.15,2.95,1.5,3.69,3,7.39,4.5,11.08"/>
      <path class="st6" d="M431.52,196.98c2.66-3.66,5.36-7.38,8.9-10.2s8.07-4.71,12.55-4.12c3.62.47,7.01,2.51,10.66,2.33,2.72-.13,5.43-1.5,8.08-.85,2.74.66,4.52,3.25,5.98,5.67,2.86,4.75,5.49,9.64,7.89,14.64,1.75,3.64,3.38,7.4,4.08,11.37.76,4.33.4,8.81-.53,13.11-1.04,4.83-2.78,9.51-5.15,13.85"/>
      <path class="st6" d="M487.77,249.58c-.42-6.69,5.44-12.02,8.85-17.79,4.12-6.95.64-21.56,8.69-22.24,6.05-.51,1.03,11.75-.61,17.61s-3.87,11.64-4.07,17.71"/>
      <path class="st6" d="M485.14,203.84c2.84-1.73,6.6-1.83,9.52-.25,1.46.79,2.83,1.99,4.49,1.96.44,0,.88-.1,1.3,0,.73.2,1.16.96,1.4,1.68s.41,1.51.93,2.06.56.71,1.87.39"/>
      <path class="st6" d="M479.56,193.03c4.36-4.35,11.14-7.73,17.29-7.95,2.72-.1,5.8.46,7.31,2.72.89,1.34,1.06,3.04,1.84,4.44,1.37,2.44,4.31,3.52,7.06,4.03s5.67.69,8.08,2.12c4.12,2.44,5.5,7.72,5.82,12.5.62,9.18-1.38,18.53-5.69,26.66-4.31,8.13-11.42,14.83-19.36,19.48"/>
      <path class="st6" d="M511.82,232.38c0,4.37-2.76,11.68-6.57,16.19-2.11,2.5-4.83,4.38-7.32,6.5-4.7,4.02-8.57,8.91-12.95,13.27s-9.25,8.56-15.27,9.97"/>
      <path class="st6" d="M464.52,185.01c.21-2.95-1.78-5.92-4.59-6.86-.73-.24-1.5-.36-2.19-.69-.84-.4-1.49-1.08-2.21-1.67-1.92-1.56-4.38-2.45-6.85-2.49s-4.95.79-6.92,2.29c-1.17.9-2.17,2.03-3.42,2.83s-2.65,1.95-3.95,1.24"/>
      <path class="st6" d="M440.68,185.9c-2.94-3.28-6-6.66-10-8.51s-9.24-1.77-12.34,1.36c-.99,1.01-1.98,2.4-3.39,2.29-.68-.05-1.4-.46-2-.13-.54.29-.74,1.09-1.34,1.22-.72.16-1.17-.71-1.69-1.22-.75-.74-1.97-.79-2.97-.46s-1.86.97-2.77,1.51c-1.84,1.09-3.91,1.76-5.77,2.82-3.04,1.74-5.44,4.48-7.14,7.54s-1.77,7.69-3.76,9.25c-1.24.97-4.24-.16-5.98-1.39s-3.25-2.79-5.13-3.8c-2.05-1.11-4.49-1.5-6.78-1.09-1,.18-2.03.55-2.67,1.33-.97,1.19-.77,2.93-.36,4.41s.99,3.01.62,4.5c-.21.83-.7,1.56-1.18,2.27-1.23,1.81-2.46,3.62-3.69,5.44-.83,1.23-1.69,2.51-1.92,3.97-.15.93-.06,1.94-.58,2.72-.43.65-1.29,1.2-1.11,1.96.1.44.55.75.62,1.2.09.55-.4.99-.78,1.39-1.18,1.24-1.65,3.1-2,5.12-.21,4.08-3.18,7.45-4.45,11.33-.37,1.12-.56,2.44.13,3.38.53.72,1.47,1.06,1.95,1.81.41.64.4,1.46.36,2.22s-.11,1.56.22,2.26.29,1.5,1.87,1.58"/>
      <path class="st6" d="M356.12,231.76c1.3.21,1.42.61,2.48,1.48,1.06.87,1.76,2.09,2.44,3.28,6.93,12.05,15.4,23.48,26.61,31.69,5.25,3.84,12.66,6.89,19.08,5.81"/>
      <path class="st6" d="M386.88,201.86s-1.92.36-2.63.78c-.84.49.17,1.81.92,2.43s1.57,1.64,1,2.42c-.56.78-1.93.41-2.57,1.12-.48.54-.27,1.41.16,1.99s1.03,1.02,1.4,1.64c.87,1.48.1,3.46.79,5.03.63,1.44,2.24,2.1,3.65,2.78,4.81,2.33,10.42,7.38,10.16,11.29"/>
      <path class="st6" d="M387.51,219.18c-.2,3.83-.41,7.67-.25,11.51.33,8.39,2.56,17.48,8.1,23.78"/>
      <path class="st6" d="M371.5,252.06c-6.68-.17-14.94-.33-21.47,1.09s-12.91,4.61-16.89,9.99c-.89,1.21-1.67,2.83-.97,4.16.61,1.14,2.04,1.52,3.32,1.72,10.56,1.69,21.78-.6,31.78,3.2,4.36,1.66,8.39,4.44,13.02,4.96,4.28.48,8.66-1.04,12.86-.14,4.04.87,7.26,3.81,10.74,6.04,6.08,3.91,20.66,5.86,20.64,5.3"/>
      <path class="st6" d="M393.27,259.63c5.07,1.71,7.96,7.73,11.22,11.96,3.71,4.82,8.65,8.51,13.52,12.14,3.86,2.88,7.9,5.83,12.62,6.79,6.15,1.25,12.4-1.08,18.24-3.37,7.02-2.75,14.04-5.49,21.06-8.24"/>
      <path class="st6" d="M507.47,245.42c-1.16,5.74-4.65,10.72-8.29,15.3-3.82,4.8-7.96,9.44-13.02,12.92s-10.61,4.39-16.65,5.42"/>
      <path class="st6" d="M519.82,240.12c9.97,6.19,19.18,13.59,27.38,21.98,2.58,2.65,5.16,5.56,6.01,9.15.75,3.16.06,6.49-.95,9.59-1.63,4.99-4.1,9.7-7.29,13.88-3.65,4.78-8.32,8.89-13.86,11.24s-12,2.79-17.58.55c-1.78-.72-3.46-1.69-5.28-2.31-2.88-.98-5.97-1.04-9-1.35-7.77-.81-15.85-4.42-22.47-8.57"/>
      <path class="st6" d="M503.28,256.13c8.18-2.12,16.6-3.33,25.05-3.61,1.49-.05,3.04-.06,4.42.5s2.59,1.84,2.61,3.33c.01,1.15-.63,2.4-.02,3.37.36.57,1.06.85,1.46,1.4.71.98.14,2.45-.87,3.12s-2.28.75-3.48.81c-4.44.22-8.89.45-13.33.67-2.42.12-4.88.25-7.19.99s-4.5,2.16-5.65,4.3c-.82,1.55-1.05,3.34-1.76,4.94-1.16,2.62-3.51,4.51-5.83,6.19-13.59,9.83-29.47,16.47-46.01,19.23-1.98.33-4.24.54-5.81-.72-.79-.64-1.34-1.61-2.28-2-1.27-.52-2.7.22-4.07.12-1.76-.13-3.15-1.69-3.65-3.38s-.31-3-.11-4.76"/>
      <path class="st6" d="M343.97,269.72c-2.23.58-3.79,4.46-3.79,6.77s.99,4.49,1.97,6.58c1.77,3.8,3.6,7.68,6.55,10.64,1.98,1.98,4.39,3.48,6.77,4.95,3.07,1.9,6.15,3.8,9.44,5.28,8.67,3.9,18.38,4.69,27.86,5.43,8.33.65,16.81,1.29,24.97-.52s16.7-5.28,19.16-13.27"/>
      <path class="st6" d="M390.83,308.96c1.07,2.41-.68,5.09-2.47,7.02s-3.88,4.14-3.55,6.76c.24,1.9,1.76,3.46,2,5.37.48,3.73-3.99,7.25-2.45,10.67.99,2.21,3.87,2.72,6.3,2.73s5.19-.05,6.85,1.71c1.21,1.29,1.64,3.4,3.28,4.07,1.88.77,4-.91,5.98-.45,2.31.54,3.06,3.53,5.04,4.82,3.7,2.4,8.65-2.34,12.82-.9,2.76.95,4.92,4.5,7.66,3.5,1.87-.68,2.36-3.03,2.91-4.95s2.23-4.09,4.09-3.37c2.38.91,1.23,4.75,2.75,6.79,1.38,1.84,4.29,1.41,6.29.27s3.84-2.81,6.13-2.99c3.99-.3,7.62,4.1,11.39,2.78,3.62-1.27,3.76-6.46,6.46-9.18,3.66-3.69,10.43-1.57,14.57-4.69,2.95-2.23,3.59-6.33,3.99-10.01.87-7.95,1.66-16.39-1.82-23.59-1.39-2.87-3.57-6.33-5.76-7.4"/>
      <path class="st6" d="M434.7,222.81s.06-.91.14-1.11c.12-.33.33-.91.71-1.2s.84-.45,1.3-.58c.97-.26,1.98-.37,2.98-.32.58.03,1.18.12,1.67.42s.98,1.3.94,1.88"/>
      <path class="st6" d="M435.81,226.71c-.34-.75.02-2.17.63-2.73s1.43-.82,2.21-1.07c1.37-.44,2.78-.88,4.22-.77s2.92.89,3.41,2.24"/>
      <path class="st6" d="M427.53,223.79c2-2.3,5.77-7.69,7.48-5.48.98,1.27-.56,3.19-.3,4.8s.56,3.33-.01,4.84"/>
    </g>
    <path class="st4" d="M492.09,105.86c-2.61,2.84-5.23,5.68-7.84,8.52-.15.17-.68.91-.07.76s1.24-.75,1.66-1.21c2.61-2.84,5.23-5.68,7.84-8.52.15-.17.68-.91.07-.76s-1.24.75-1.66,1.21h0Z"/>
    <path class="st4" d="M484.98,115.33c.24-.23.49-.47.73-.7.12-.11.23-.22.35-.32.07-.07.14-.14.22-.2-.09.07-.17.15-.03.03.5-.45,1.01-.89,1.54-1.31.25-.2.49-.4.74-.6.23-.18-.14.11.01,0,.06-.05.13-.1.19-.15.13-.1.25-.19.38-.29.55-.42,1.12-.82,1.69-1.21.31-.21.61-.49.86-.77.09-.11.39-.44.38-.62-.04-.46-1.01.24-1.11.31-2.5,1.72-4.86,3.67-7.04,5.78-.12.12-.95.92-.49,1.04.2.05.54-.18.68-.26.33-.2.63-.44.91-.71h-.01v-.02Z"/>
    <g class="st1">
      <g class="st1">
        <text class="st0" transform="translate(321.23 139.43) rotate(79.11) scale(1.33 1)"><tspan x="0" y="0">-</tspan></text>
      </g>
    </g>
    <g class="st1">
      <g class="st1">
        <text class="st3" transform="translate(411.68 410.39)"><tspan x="0" y="0">est 2025</tspan></text>
      </g>
    </g>
    <circle cx="405.17" cy="406.43" r="1.26"/>
    <circle cx="472.85" cy="405.17" r="1.26"/>
    <g class="st1">
      <g class="st1">
        <text class="st2" transform="translate(289.17 246.84) rotate(-69.47)"><tspan x="0" y="0">F</tspan></text>
      </g>
    </g>
    <g class="st1">
      <g class="st1">
        <text class="st2" transform="translate(299.69 220.51) rotate(-61.75)"><tspan x="0" y="0">l</tspan></text>
      </g>
    </g>
    <g class="st1">
      <g class="st1">
        <text class="st2" transform="translate(305.97 208.37) rotate(-54.81)"><tspan x="0" y="0">o</tspan></text>
      </g>
    </g>
    <g class="st1">
      <g class="st1">
        <text class="st2" transform="translate(320.02 189) rotate(-47.04)"><tspan x="0" y="0">r</tspan></text>
      </g>
    </g>
    <g class="st1">
      <g class="st1">
        <text class="st2" transform="translate(332.3 175.8) rotate(-39.63)"><tspan x="0" y="0">e</tspan></text>
      </g>
    </g>
    <g class="st1">
      <g class="st1">
        <text class="st2" transform="translate(349.05 162.08) rotate(-31.55)"><tspan x="0" y="0">e</tspan></text>
      </g>
    </g>
    <g class="st1">
      <g class="st1">
        <text class="st2" transform="translate(379.56 145.36) rotate(-18.9)"><tspan x="0" y="0">s</tspan></text>
      </g>
    </g>
    <g class="st1">
      <g class="st1">
        <text class="st2" transform="translate(397.53 139.36) rotate(-12.99)"><tspan x="0" y="0">t</tspan></text>
      </g>
    </g>
    <g class="st1">
      <g class="st1">
        <text class="st2" transform="translate(412.17 135.75) rotate(-5.46)"><tspan x="0" y="0">u</tspan></text>
      </g>
    </g>
    <g class="st1">
      <g class="st1">
        <text class="st2" transform="translate(437.33 133.47) rotate(3.96)"><tspan x="0" y="0">d</tspan></text>
      </g>
    </g>
    <g class="st1">
      <g class="st1">
        <text class="st2" transform="translate(462.66 135.71) rotate(11.22)"><tspan x="0" y="0">i</tspan></text>
      </g>
    </g>
    <g class="st1">
      <g class="st1">
        <text class="st2" transform="translate(476.1 138.17) rotate(18.18)"><tspan x="0" y="0">o</tspan></text>
      </g>
    </g>
    <path class="st5" d="M310.54,370.93c-4.77-6.95-9-14.34-12.61-22.11"/>
    <path class="st5" d="M541.69,169.01c25.22,22.79,43.12,54.02,48.89,90.2,13.45,84.26-43.95,163.47-128.21,176.93-60.88,9.72-119.12-17.55-151.84-65.21"/>
    <path class="st5" d="M514.21,149.16c9.85,5.59,19.07,12.25,27.48,19.85"/>
    <path class="st5" d="M297.92,348.82c-5.9-12.69-10.16-26.39-12.48-40.89-.85-5.31-1.41-10.6-1.71-15.85"/>
  </g>
</svg>